<svg xmlns="http://www.w3.org/2000/svg" viewBox="0 0 100 100" preserveAspectRatio="xMidYMid" style="shape-rendering: auto; display: block; background: transparent;" width="100%" height="100%" xmlns:xlink="http://www.w3.org/1999/xlink"><g><g transform="rotate(0 50 50)">
  <rect x="43.5" y="18.5" rx="6.5" ry="6.5" width="13" height="13" fill="#eaeaea">
    <animate attributeName="opacity" values="1;0" keyTimes="0;1" dur="0.5681818181818182s" begin="-0.5050505050505051s" repeatCount="indefinite"></animate>
  </rect>
</g><g transform="rotate(40 50 50)">
  <rect x="43.5" y="18.5" rx="6.5" ry="6.5" width="13" height="13" fill="#eaeaea">
    <animate attributeName="opacity" values="1;0" keyTimes="0;1" dur="0.5681818181818182s" begin="-0.44191919191919193s" repeatCount="indefinite"></animate>
  </rect>
</g><g transform="rotate(80 50 50)">
  <rect x="43.5" y="18.5" rx="6.5" ry="6.5" width="13" height="13" fill="#eaeaea">
    <animate attributeName="opacity" values="1;0" keyTimes="0;1" dur="0.5681818181818182s" begin="-0.3787878787878788s" repeatCount="indefinite"></animate>
  </rect>
</g><g transform="rotate(120 50 50)">
  <rect x="43.5" y="18.5" rx="6.5" ry="6.5" width="13" height="13" fill="#eaeaea">
    <animate attributeName="opacity" values="1;0" keyTimes="0;1" dur="0.5681818181818182s" begin="-0.31565656565656564s" repeatCount="indefinite"></animate>
  </rect>
</g><g transform="rotate(160 50 50)">
  <rect x="43.5" y="18.5" rx="6.5" ry="6.5" width="13" height="13" fill="#eaeaea">
    <animate attributeName="opacity" values="1;0" keyTimes="0;1" dur="0.5681818181818182s" begin="-0.25252525252525254s" repeatCount="indefinite"></animate>
  </rect>
</g><g transform="rotate(200 50 50)">
  <rect x="43.5" y="18.5" rx="6.5" ry="6.5" width="13" height="13" fill="#eaeaea">
    <animate attributeName="opacity" values="1;0" keyTimes="0;1" dur="0.5681818181818182s" begin="-0.1893939393939394s" repeatCount="indefinite"></animate>
  </rect>
</g><g transform="rotate(240 50 50)">
  <rect x="43.5" y="18.5" rx="6.5" ry="6.5" width="13" height="13" fill="#eaeaea">
    <animate attributeName="opacity" values="1;0" keyTimes="0;1" dur="0.5681818181818182s" begin="-0.12626262626262627s" repeatCount="indefinite"></animate>
  </rect>
</g><g transform="rotate(280 50 50)">
  <rect x="43.5" y="18.5" rx="6.5" ry="6.5" width="13" height="13" fill="#eaeaea">
    <animate attributeName="opacity" values="1;0" keyTimes="0;1" dur="0.5681818181818182s" begin="-0.06313131313131314s" repeatCount="indefinite"></animate>
  </rect>
</g><g transform="rotate(320 50 50)">
  <rect x="43.5" y="18.5" rx="6.5" ry="6.5" width="13" height="13" fill="#eaeaea">
    <animate attributeName="opacity" values="1;0" keyTimes="0;1" dur="0.5681818181818182s" begin="0s" repeatCount="indefinite"></animate>
  </rect>
</g><g></g></g><!-- [ldio] generated by https://loading.io --></svg>